<svg id="ic_language" xmlns="http://www.w3.org/2000/svg" width="24" height="23.999" viewBox="0 0 24 23.999">
  <path id="ic_language-2" data-name="ic_language" d="M4953,4454a12,12,0,1,1,8.484-3.515A11.923,11.923,0,0,1,4953,4454Zm0-2h.068c1.278-.054,2.412-1.614,3.13-4h-6.4c.718,2.385,1.852,3.945,3.131,4Zm3.824-.76A10.064,10.064,0,0,0,4961,4448h-2.8A13.7,13.7,0,0,1,4956.825,4451.24Zm-7.649,0A13.7,13.7,0,0,1,4947.8,4448H4945A10.066,10.066,0,0,0,4949.175,4451.239Zm12.99-5.239a10.011,10.011,0,0,0,.375-7h-3.73a23.449,23.449,0,0,1,.19,3,23.018,23.018,0,0,1-.343,4Zm-5.5,0a23.328,23.328,0,0,0,.334-4,24.042,24.042,0,0,0-.184-3h-7.633a24.042,24.042,0,0,0-.184,3,23.328,23.328,0,0,0,.334,4Zm-9.324,0a23.018,23.018,0,0,1-.343-4,23.449,23.449,0,0,1,.19-3h-3.73a10.011,10.011,0,0,0,.375,7Zm14.315-9a10.066,10.066,0,0,0-4.833-4.239,14.648,14.648,0,0,1,1.629,4.239Zm-5.194,0c-.692-2.986-1.985-5-3.463-5s-2.771,2.013-3.464,5Zm-8.917,0a14.631,14.631,0,0,1,1.629-4.239,10.07,10.07,0,0,0-4.833,4.239Z" transform="translate(-4941 -4430)" fill="#fff"/>
</svg>
